<svg width="345" height="52" viewBox="0 0 345 52" fill="none" xmlns="http://www.w3.org/2000/svg">
<g clip-path="url(#clip0_2535_371)">
<path d="M52.368 0V17.3333H35.0787V52H17.7893V17.3333H0.5V0H52.368Z" fill="white"/>
<path d="M104.237 0H69.6582V17.3333H104.237V0Z" fill="white"/>
<path d="M104.235 34.6663V51.9997H52.3672V17.333H69.6565V34.6663H104.235Z" fill="white"/>
<path d="M136.912 12.1328H113.168V19.0084H121.121V40.5595H128.959V19.0084H136.912V12.1328Z" fill="white"/>
<path d="M145.845 18.7773C140.255 18.7773 136.105 22.5329 136.105 29.9285C136.105 36.4573 139.621 41.0218 146.018 41.0218C149.361 41.0218 152.069 40.1551 154.663 38.5951L151.896 33.9151C149.764 35.0129 148.266 35.4173 146.364 35.4173C144.404 35.4173 143.021 34.3773 142.733 32.0085H155.239C155.297 31.6618 155.297 31.1996 155.297 30.564C155.354 22.6485 151.723 18.7773 145.845 18.7773ZM142.848 27.444C143.079 25.3062 144.001 24.2085 145.672 24.2085C147.805 24.2085 148.554 25.3062 148.9 27.444H142.848Z" fill="white"/>
<path d="M169.185 35.0707C167.226 35.0707 166.188 33.3373 166.188 29.9285C166.188 26.5773 167.11 24.6707 169.012 24.6707C170.568 24.6707 171.26 25.5373 172.297 27.444L177.311 23.6307C175.467 20.6262 173.162 18.7773 169.127 18.7773C162.327 18.7773 158.984 23.284 158.984 29.8129C158.984 36.9773 162.73 40.964 168.955 40.964C172.701 40.964 175.006 39.5196 177.484 35.8796L172.873 32.2396C171.49 34.3196 170.568 35.0707 169.185 35.0707Z" fill="white"/>
<path d="M194.312 18.7775C191.776 18.7775 190.277 19.6442 188.952 20.6264V10.9775L181.633 13.9242V40.6175H188.952V28.4264C188.952 25.7686 189.874 25.0175 191.43 25.0175C192.929 25.0175 193.851 25.7686 193.851 28.4842V40.6175H201.17V27.5598C201.17 21.9553 198.922 18.7775 194.312 18.7775Z" fill="white"/>
<path d="M218.747 34.1465C215.347 34.1465 213.964 30.6798 213.964 26.3465C213.964 21.8398 215.405 18.5465 218.69 18.5465C221.283 18.5465 222.263 20.222 223.243 22.8798L230.389 20.0487C228.429 14.6753 225.663 11.6709 218.69 11.6709C211.082 11.6709 205.723 17.2176 205.723 26.3465C205.723 34.782 210.218 41.022 218.632 41.022C225.375 41.022 228.545 37.382 230.446 33.6842L223.819 30.1598C222.263 32.8176 221.225 34.1465 218.747 34.1465Z" fill="white"/>
<path d="M242.204 20.7996V19.2396H234.885V40.5596H242.204V28.9462C242.204 26.3462 243.299 25.4796 245.085 25.4796C246.526 25.4796 247.564 26.2307 248.486 27.2707L250.215 19.7018C249.35 19.1818 248.313 18.7773 246.757 18.7773C244.855 18.7773 243.414 19.5862 242.204 20.7996Z" fill="white"/>
<path d="M265.832 31.4313C265.832 34.0891 264.91 34.8402 263.412 34.8402C261.913 34.8402 260.991 34.0891 260.991 31.3736V19.2402H253.672V32.298C253.672 37.9025 255.919 41.0225 260.588 41.0225C263.066 41.0225 264.622 40.1558 265.89 39.1736V40.618H273.209V19.298H265.89L265.832 31.4313Z" fill="white"/>
<path d="M291.132 18.7773C288.596 18.7773 287.098 19.644 285.772 20.6262V19.1818H278.453V40.5018H285.772V28.3107C285.772 25.6529 286.694 24.9018 288.25 24.9018C289.749 24.9018 290.671 25.6529 290.671 28.3685V40.5018H297.99V27.444C297.99 21.9551 295.8 18.7773 291.132 18.7773Z" fill="white"/>
<path d="M312.514 35.0707C310.555 35.0707 309.517 33.3373 309.517 29.9285C309.517 26.5773 310.439 24.6707 312.284 24.6707C313.84 24.6707 314.531 25.5373 315.569 27.444L320.583 23.6307C318.738 20.6262 316.433 18.7773 312.399 18.7773C305.598 18.7773 302.256 23.284 302.256 29.8129C302.256 36.9773 306.002 40.964 312.226 40.964C315.972 40.964 318.277 39.5196 320.755 35.8796L316.145 32.2396C314.877 34.3196 313.897 35.0707 312.514 35.0707Z" fill="white"/>
<path d="M337.642 18.7775C335.106 18.7775 333.608 19.6442 332.282 20.6264V10.9775L324.963 13.9242V40.6175H332.282V28.4264C332.282 25.7686 333.204 25.0175 334.76 25.0175C336.259 25.0175 337.181 25.7686 337.181 28.4842V40.6175H344.5V27.5598C344.557 21.9553 342.31 18.7775 337.642 18.7775Z" fill="white"/>
</g>
<defs>
<clipPath id="clip0_2535_371">
<rect width="344" height="52" fill="white" transform="translate(0.5)"/>
</clipPath>
</defs>
</svg>
