<svg width="177" height="62" viewBox="0 0 177 62" fill="none" xmlns="http://www.w3.org/2000/svg">
<g clip-path="url(#clip0_2535_436)">
<path d="M68.2348 18.7947C66.9575 17.4326 65.5457 16.6153 64.6044 16.6153H63.7305V15.8662H64.4364C64.7725 15.8662 68.6718 16.0365 69.0752 16.0365C69.6803 16.0365 71.4955 15.8662 71.8988 15.8662H72.672L90.8239 35.9227V20.0886C90.8239 17.5688 89.7146 16.6153 86.9582 16.6153H86.1515V15.8662H87.0255C87.1263 15.8662 91.2273 16.0365 91.5634 16.0365C92.034 16.0365 94.7568 15.8662 95.2947 15.8662H95.8325L95.8661 16.6153C93.345 16.8197 92.6727 17.5007 92.6727 19.7141V44.742H91.8324L70.1173 20.7697V38.8171C70.1173 42.5968 70.9912 43.6183 74.1174 43.6183H74.9242V44.4356H74.0166C73.3443 44.4356 70.05 44.2653 69.3105 44.2653C68.8735 44.2653 65.8146 44.4356 65.1423 44.4356H64.3691V43.6183C67.5625 43.3119 68.2348 42.8011 68.2348 40.4515V18.7947Z" fill="white"/>
<path d="M101.144 19.0679C101.144 17.1951 100.438 16.5821 98.1861 16.5821H97.4802V15.833H99.329C100.606 15.833 107.598 16.0033 107.632 16.0033C108.64 16.0033 115.262 15.833 116.674 15.833H118.59L118.691 22.0645H117.952C117.817 18.8296 116.372 17.5015 113.01 17.5015H106.354V28.5002H112.103C114.355 28.5002 115.598 27.4446 115.901 25.1632L116.741 25.1972V33.8804H115.935C115.565 31.1563 114.187 30.1007 110.825 30.1007H106.254V40.1459C106.254 41.7804 107.06 42.6317 108.674 42.6317H113.447C116.54 42.6317 118.792 41.2356 120.103 38.3071H120.977L118.96 44.4024C117.582 44.4024 110.993 44.2321 108.808 44.2321C107.329 44.2321 100.203 44.3343 98.5894 44.4024H97.3457V43.5851H98.1188C100.371 43.5511 101.077 42.9382 101.077 41.0653L101.144 19.0679Z" fill="white"/>
<path d="M146.962 44.7768H145.617L140.171 29.726L134.591 44.7768H133.314L124.003 19.5105C123.297 17.5695 122.625 16.7863 121.381 16.548V15.8329H122.188C122.725 15.8329 125.347 16.0031 125.952 16.0031C126.49 16.0031 129.213 15.8329 129.785 15.8329H130.659V16.582C129.28 16.6161 128.709 17.0247 128.709 17.8079C128.709 18.2506 128.843 18.8635 129.079 19.5445L135.633 37.4557L139.365 27.2402L136.944 20.3618C135.902 17.3993 134.995 16.6501 132.675 16.582V15.8329H133.449C134.121 15.8329 137.55 16.0031 138.356 16.0031C139.029 16.0031 142.457 15.8329 143.23 15.8329H144.373V16.582H143.23C141.651 16.582 140.877 16.9566 140.877 17.8079C140.877 18.2506 141.079 19.0337 141.348 19.7829L147.701 37.5919L152.71 22.473C153.315 20.532 153.617 19.2721 153.617 18.4889C153.617 17.1268 152.945 16.548 151.466 16.548H150.592V15.7988H150.827C151.5 15.7988 153.18 15.9691 154.155 15.9691C154.626 15.9691 156.475 15.7988 157.382 15.7988H157.718V16.548C156.508 16.8885 155.903 17.7738 154.962 20.7023L146.962 44.7768Z" fill="white"/>
<path d="M157.985 37.7963C158.758 39.6691 159.431 40.5544 160.708 41.5079C162.322 42.7678 164.473 43.3807 166.859 43.3807C170.96 43.3807 173.717 41.2014 173.717 38.0687C173.717 35.7532 172.372 34.4932 167.465 32.1096C162.691 29.7941 161.481 28.6364 160.506 27.6489C159.027 26.0484 158.422 24.6183 158.422 22.6773C158.422 18.2165 161.985 15.2881 167.397 15.2881C169.011 15.2881 170.792 15.5264 172.708 16.0032C173.482 16.2075 174.221 16.2756 174.658 16.2756C175.028 16.2756 175.23 16.1734 175.364 15.867H176.171L176.272 21.9622H175.599C175.162 20.498 174.893 19.8851 174.255 19.1019C172.91 17.5014 170.826 16.6502 168.103 16.6502C164.675 16.6502 162.422 18.2846 162.422 20.7704C162.422 22.8816 163.7 24.1075 168.271 26.2187C174.12 28.9769 177.683 31.4286 177.683 35.9915C177.683 41.2014 173.482 44.7428 167.229 44.7428C165.649 44.7428 164.103 44.5385 162.187 44.1299C161.515 43.9937 160.809 43.8915 160.473 43.8915C159.901 43.8915 159.7 43.9937 159.33 44.4363H158.523L158.422 43.7553C158.052 41.5419 157.615 39.4648 157.279 38.0346L157.985 37.7963Z" fill="white"/>
<path d="M16.9712 31.1914C16.9712 33.3026 15.2905 35.0392 13.1727 35.0392C11.055 35.0392 9.37428 33.3366 9.37428 31.1914C9.37428 29.0802 11.055 27.3435 13.1727 27.3435C15.2905 27.3776 16.9712 29.0802 16.9712 31.1914ZM31.2911 27.3776C29.207 27.3776 27.4926 29.0802 27.4926 31.2254C27.4926 33.3366 29.1733 35.0733 31.2911 35.0733C33.3752 35.0733 35.0895 33.3707 35.0895 31.2254C35.0895 29.0802 33.4088 27.3776 31.2911 27.3776ZM62.1157 31.1914C62.1157 48.4215 48.3337 62.3827 31.3247 62.3827C14.3156 62.3827 0.5 48.4215 0.5 31.1914C0.5 13.9612 14.282 0 31.2911 0C48.3001 0 62.1157 13.9612 62.1157 31.1914ZM21.7109 31.1914C21.7109 26.4241 17.9124 22.5763 13.2064 22.5763C8.5003 22.5763 4.70184 26.4241 4.70184 31.1914C4.70184 35.9586 8.5003 39.8064 13.2064 39.8064C15.6602 39.8064 17.0048 38.172 17.0048 38.172V39.6702H21.7445L21.7109 31.1914ZM39.8292 31.1914C39.8292 26.4241 36.0307 22.5763 31.3247 22.5763C29.0389 22.5763 27.5262 23.8362 27.5262 23.8362V18.3539H22.7865V31.1914C22.7865 35.9586 26.585 39.8064 31.2911 39.8064C35.9971 39.8405 39.8292 35.9586 39.8292 31.1914ZM57.8467 32.3151H53.0398C52.5692 33.8814 51.1237 35.0392 49.4094 35.0392C47.3253 35.0392 45.6109 33.3366 45.6109 31.1914C45.6109 29.0802 47.2917 27.3435 49.4094 27.3435C51.1237 27.3435 52.5692 28.5013 53.0398 30.0677H57.8467C57.3088 25.8793 53.7457 22.5763 49.4094 22.5763C44.7033 22.5763 40.9049 26.4241 40.9049 31.1914C40.9049 35.9586 44.7033 39.8064 49.4094 39.8064C53.7457 39.8405 57.3088 36.5375 57.8467 32.3151Z" fill="white"/>
</g>
<defs>
<clipPath id="clip0_2535_436">
<rect width="176" height="62" fill="white" transform="translate(0.5)"/>
</clipPath>
</defs>
</svg>
