<svg width="217" height="70" viewBox="0 0 217 70" fill="none" xmlns="http://www.w3.org/2000/svg">
<path d="M78.0782 18.5943V8.91797H44.8516V51.7704H78.0782V42.094H55.2359V35.1824H67.0027V25.506H55.2359V18.5943H78.0782Z" fill="white"/>
<path d="M135.496 18.5943V8.91797H168.723V18.5943H156.956V51.7704H147.263V18.5943H135.496Z" fill="white"/>
<path d="M118.149 8.91797L110.984 19.1338L117.222 28.0347L130.59 8.91797H118.149Z" fill="white"/>
<path d="M118.149 51.77L110.984 41.5374L117.205 32.6533L130.59 51.77H118.149Z" fill="white"/>
<path d="M97.9546 30.3442L82.9849 51.7704H95.3922L110.429 30.3442L95.4934 8.91797H82.9512L97.9546 30.3442Z" fill="white"/>
<path d="M0.566406 51.7704H10.2428V26.1972L26.1396 51.7704H35.816V8.91797H26.1396V34.4912L10.2428 8.91797H0.566406V51.7704Z" fill="white"/>
<path d="M179.175 28.4896C178.197 28.4896 177.371 28.1524 176.697 27.4781C176.023 26.8038 175.686 25.9778 175.686 24.9663C175.686 23.938 176.023 23.112 176.697 22.4882C177.371 21.8476 178.197 21.5273 179.175 21.5273C180.153 21.5273 180.979 21.8476 181.653 22.4882C182.328 23.112 182.665 23.938 182.665 24.9663C182.665 25.9778 182.328 26.8038 181.653 27.4781C180.996 28.1693 180.17 28.4896 179.175 28.4896Z" fill="white"/>
<path d="M186.458 8.91776H192.054V28.203H186.458V8.91776ZM189.256 6.23737C188.228 6.23737 187.385 5.93393 186.744 5.34391C186.103 4.75389 185.783 4.01215 185.783 3.11869C185.783 2.22522 186.103 1.50034 186.744 0.893462C187.385 0.30344 188.228 0 189.256 0C190.284 0 191.127 0.286582 191.768 0.859746C192.408 1.43291 192.745 2.15779 192.745 3.01754C192.745 3.94472 192.425 4.72017 191.768 5.34391C191.11 5.93393 190.284 6.23737 189.256 6.23737Z" fill="white"/>
<path d="M206.417 28.4893C204.377 28.4893 202.557 28.0679 200.922 27.2418C199.32 26.3821 198.073 25.202 197.162 23.6848C196.252 22.1676 195.797 20.465 195.797 18.5601C195.797 16.6552 196.252 14.9357 197.162 13.4353C198.073 11.935 199.32 10.7549 200.922 9.92891C202.557 9.06916 204.377 8.63086 206.417 8.63086C208.457 8.63086 210.261 9.06916 211.862 9.92891C213.464 10.7718 214.728 11.935 215.622 13.4353C216.532 14.9357 216.987 16.6552 216.987 18.5601C216.987 20.465 216.532 22.1845 215.622 23.6848C214.711 25.1852 213.464 26.3652 211.862 27.2418C210.278 28.0847 208.457 28.4893 206.417 28.4893ZM206.417 23.904C207.85 23.904 209.03 23.432 209.924 22.4711C210.851 21.4933 211.323 20.1953 211.323 18.5601C211.323 16.9417 210.851 15.6437 209.924 14.6828C209.013 13.705 207.85 13.2162 206.417 13.2162C204.984 13.2162 203.804 13.705 202.86 14.6828C201.933 15.6437 201.461 16.9249 201.461 18.5601C201.461 20.1784 201.933 21.4933 202.86 22.4711C203.804 23.432 204.984 23.904 206.417 23.904Z" fill="white"/>
<path d="M0.5 62.7775V61.5469H6.92281V62.7775H4.44472V69.6049H2.99495V62.7775H0.5Z" fill="white"/>
<path d="M8.70898 69.6049V61.5469H10.1756V64.9521H13.9012V61.5469H15.3678V69.6049H13.9012V66.1828H10.1756V69.6049H8.70898Z" fill="white"/>
<path d="M17.5098 69.6049V61.5469H22.7525V62.7775H18.9764V64.969H22.4828V66.1996H18.9764V68.3911H22.7694V69.6217H17.5098V69.6049Z" fill="white"/>
<path d="M29.7817 69.6049L27.5059 61.5469H29.0736L30.5234 67.4639H30.5908L32.1417 61.5469H33.5747L35.1256 67.4639H35.193L36.6428 61.5469H38.2105L35.9516 69.6049H34.5187L32.9003 63.9575H32.8329L31.2146 69.6049H29.7817Z" fill="white"/>
<path d="M46.5556 65.594C46.5556 66.4538 46.387 67.2124 46.0667 67.8192C45.7464 68.443 45.3081 68.915 44.7518 69.2353C44.1955 69.5556 43.5717 69.7242 42.8637 69.7242C42.1557 69.7242 41.532 69.5556 40.9757 69.2353C40.4193 68.915 39.981 68.4261 39.6607 67.8192C39.3405 67.1955 39.1719 66.4538 39.1719 65.594C39.1719 64.7343 39.3405 63.9757 39.6607 63.3688C39.981 62.7451 40.4193 62.273 40.9757 61.9527C41.532 61.6324 42.1557 61.4639 42.8637 61.4639C43.5717 61.4639 44.1955 61.6324 44.7518 61.9527C45.3081 62.273 45.7464 62.7451 46.0667 63.3688C46.4039 63.9757 46.5556 64.7174 46.5556 65.594ZM45.0889 65.594C45.0889 64.9871 44.9878 64.4645 44.8024 64.0431C44.6169 63.6217 44.3472 63.3014 44.0101 63.0822C43.6729 62.8631 43.2852 62.7619 42.8469 62.7619C42.4086 62.7619 42.0208 62.8631 41.6837 63.0822C41.3465 63.3014 41.0768 63.6217 40.8914 64.0431C40.7059 64.4645 40.6048 64.9871 40.6048 65.594C40.6048 66.2009 40.7059 66.7235 40.8914 67.1449C41.0768 67.5664 41.3465 67.8867 41.6837 68.1058C42.0208 68.325 42.4086 68.4261 42.8469 68.4261C43.2852 68.4261 43.6729 68.325 44.0101 68.1058C44.3472 67.8867 44.6001 67.5664 44.8024 67.1449C45.0047 66.7235 45.0889 66.2009 45.0889 65.594Z" fill="white"/>
<path d="M48.4941 69.6049V61.5469H51.5117C52.1354 61.5469 52.658 61.648 53.0626 61.8672C53.4672 62.0863 53.8043 62.3898 54.0235 62.7775C54.2426 63.1652 54.3438 63.6204 54.3438 64.1261C54.3438 64.6487 54.2426 65.087 54.0235 65.4747C53.8043 65.8456 53.484 66.149 53.0626 66.3513C52.6412 66.5536 52.1186 66.6548 51.4948 66.6548H49.337V65.441H51.2925C51.6465 65.441 51.95 65.3904 52.186 65.2893C52.422 65.1881 52.5906 65.0364 52.6917 64.851C52.8097 64.6487 52.8603 64.4127 52.8603 64.1261C52.8603 63.8395 52.8097 63.6035 52.6917 63.3844C52.5737 63.1821 52.4051 63.0304 52.1691 62.9123C51.9331 62.8112 51.6465 62.7606 51.2757 62.7606H49.9439V69.6049H48.4941ZM52.658 65.9636L54.6472 69.6049H53.012L51.0565 65.9636H52.658Z" fill="white"/>
<path d="M56.2656 69.6049V61.5469H57.7322V68.3743H61.2724V69.6049H56.2656Z" fill="white"/>
<path d="M65.8071 69.6049H63.0762V61.5469H65.8577C66.65 61.5469 67.3412 61.7155 67.9143 62.0357C68.4875 62.356 68.9258 62.8112 69.2461 63.4181C69.5496 64.025 69.7181 64.733 69.7181 65.5759C69.7181 66.4188 69.5664 67.1437 69.2461 67.7337C68.9258 68.3237 68.4875 68.7957 67.8975 69.116C67.3243 69.4532 66.6332 69.6049 65.8071 69.6049ZM64.5428 68.3574H65.7397C66.296 68.3574 66.768 68.2563 67.1389 68.054C67.5098 67.8517 67.7963 67.5482 67.9818 67.1268C68.1672 66.7222 68.2684 66.1996 68.2684 65.5927C68.2684 64.969 68.1672 64.4633 67.9818 64.0587C67.7963 63.6541 67.5098 63.3507 67.1389 63.1484C66.768 62.9461 66.3129 62.8449 65.7734 62.8449H64.5259V68.3574H64.5428Z" fill="white"/>
<path d="M72.584 61.5645V64.5314H71.4883V61.5645H72.584Z" fill="white"/>
<path d="M78.9379 63.7727C78.9042 63.4355 78.7525 63.1658 78.4827 62.9635C78.213 62.7781 77.859 62.6769 77.4207 62.6769C77.1173 62.6769 76.8475 62.7275 76.6452 62.8118C76.443 62.8961 76.2575 63.0309 76.1395 63.1826C76.0215 63.3344 75.9709 63.5198 75.9709 63.7221C75.9709 63.8907 76.0046 64.0424 76.0889 64.1604C76.1732 64.2784 76.2744 64.3795 76.4092 64.4807C76.5441 64.565 76.6958 64.6324 76.8475 64.6998C77.0161 64.7504 77.1678 64.801 77.3364 64.8516L78.095 65.037C78.3985 65.1044 78.685 65.2056 78.9716 65.3236C79.2582 65.4416 79.5111 65.5933 79.7302 65.7787C79.9494 65.9642 80.1348 66.1833 80.2697 66.4362C80.4045 66.6891 80.472 66.9925 80.472 67.3465C80.472 67.8185 80.354 68.24 80.1179 68.594C79.8819 68.948 79.5279 69.2346 79.0728 69.4369C78.6176 69.6392 78.0613 69.7403 77.4207 69.7403C76.797 69.7403 76.2575 69.6392 75.7855 69.4537C75.3303 69.2514 74.9595 68.9817 74.7066 68.6108C74.4537 68.24 74.302 67.7848 74.2852 67.2454H75.7181C75.7349 67.5319 75.8192 67.7511 75.9709 67.9534C76.1227 68.1388 76.3249 68.2737 76.561 68.3748C76.8138 68.4591 77.0835 68.5097 77.387 68.5097C77.7073 68.5097 77.977 68.4591 78.2299 68.358C78.4659 68.2568 78.6513 68.122 78.7862 67.9534C78.921 67.7848 78.9885 67.5825 78.9885 67.3465C78.9885 67.1442 78.921 66.9588 78.803 66.8239C78.685 66.6891 78.5165 66.571 78.2973 66.4699C78.0782 66.3688 77.8253 66.3013 77.5387 66.217L76.6284 65.981C75.9709 65.8124 75.4483 65.5596 75.0606 65.2056C74.6729 64.8516 74.4874 64.3964 74.4874 63.8232C74.4874 63.3512 74.6223 62.9298 74.8752 62.5758C75.128 62.2217 75.4821 61.9352 75.9372 61.7497C76.3755 61.5474 76.8812 61.4463 77.4544 61.4463C78.0276 61.4463 78.5333 61.5474 78.9548 61.7497C79.3931 61.952 79.7302 62.2217 79.9662 62.5758C80.2191 62.9298 80.3371 63.3344 80.354 63.7895H78.9379V63.7727Z" fill="white"/>
<path d="M86.2713 62.7108C86.0522 62.7108 85.8499 62.6434 85.6813 62.4917C85.5127 62.3399 85.4453 62.1545 85.4453 61.9522C85.4453 61.7331 85.5296 61.5476 85.6813 61.3959C85.8499 61.2442 86.0353 61.1768 86.2713 61.1768C86.5074 61.1768 86.6928 61.2442 86.8614 61.3959C87.0299 61.5476 87.0974 61.7331 87.0974 61.9522C87.0974 62.1714 87.0131 62.3399 86.8614 62.4917C86.6928 62.6434 86.4905 62.7108 86.2713 62.7108ZM85.5465 69.6056V63.5706H86.9625V69.6056H85.5465Z" fill="white"/>
<path d="M94.4489 64.1272C94.3814 63.908 94.2971 63.7226 94.1791 63.554C94.0611 63.3854 93.9263 63.2337 93.7745 63.1157C93.6228 62.9977 93.4374 62.8966 93.2351 62.846C93.0328 62.7786 92.8137 62.7617 92.5608 62.7617C92.1225 62.7617 91.7348 62.8629 91.3976 63.082C91.0604 63.3012 90.7907 63.6215 90.6053 64.0429C90.4199 64.4643 90.3187 64.9701 90.3187 65.577C90.3187 66.1838 90.4199 66.7064 90.6053 67.1279C90.7907 67.5493 91.0604 67.8696 91.3976 68.0888C91.7348 68.3079 92.1393 68.4091 92.5776 68.4091C92.9822 68.4091 93.3362 68.3248 93.6397 68.173C93.9431 68.0213 94.1791 67.7853 94.3309 67.4987C94.4994 67.2122 94.5669 66.875 94.5669 66.4704L94.904 66.521H92.7125V65.3915H95.9829V66.3524C95.9829 67.0436 95.8312 67.6336 95.5446 68.1393C95.258 68.6451 94.8534 69.0328 94.3309 69.3025C93.8251 69.5722 93.2351 69.7071 92.5608 69.7071C91.819 69.7071 91.1616 69.5385 90.6053 69.2014C90.049 68.8642 89.6107 68.3922 89.2904 67.7685C88.9701 67.1447 88.8184 66.4198 88.8184 65.5601C88.8184 64.9026 88.9027 64.3295 89.0881 63.8237C89.2735 63.318 89.5264 62.8797 89.8635 62.5257C90.2007 62.1717 90.5884 61.902 91.0436 61.6997C91.4987 61.5142 91.9876 61.4131 92.5102 61.4131C92.9485 61.4131 93.37 61.4805 93.7577 61.6154C94.1454 61.7502 94.4826 61.9357 94.786 62.1717C95.0895 62.4077 95.3255 62.6943 95.5277 63.0146C95.73 63.3349 95.8481 63.7057 95.9155 64.0935H94.4489V64.1272Z" fill="white"/>
<path d="M98.7482 69.6049H97.1973L100.029 61.5469H101.833L104.665 69.6049H103.114L100.957 63.1989H100.889L98.7482 69.6049ZM98.7988 66.4525H103.047V67.6325H98.7988V66.4525Z" fill="white"/>
<path d="M106.283 61.5645H108.07L110.464 67.3972H110.565L112.959 61.5645H114.746V69.6056H113.347V64.0763H113.279L111.054 69.5887H110.009L107.784 64.0594H107.716V69.6056H106.317V61.5645H106.283Z" fill="white"/>
<path d="M118.336 61.5637V69.6049H116.869V61.5469H118.336V61.5637Z" fill="white"/>
<path d="M127.084 61.5637V69.6049H125.786L121.993 64.1261H121.926V69.6049H120.459V61.5469H121.757L125.55 67.0425H125.617V61.5469H127.084V61.5637Z" fill="white"/>
<path d="M134.621 64.1272C134.553 63.908 134.469 63.7226 134.351 63.554C134.233 63.3854 134.098 63.2337 133.946 63.1157C133.795 62.9977 133.609 62.8966 133.407 62.846C133.205 62.7786 132.986 62.7617 132.733 62.7617C132.294 62.7617 131.907 62.8629 131.569 63.082C131.232 63.3012 130.963 63.6215 130.777 64.0429C130.592 64.4643 130.491 64.9701 130.491 65.577C130.491 66.1838 130.592 66.7064 130.777 67.1279C130.963 67.5493 131.232 67.8696 131.569 68.0888C131.907 68.3079 132.311 68.4091 132.75 68.4091C133.154 68.4091 133.508 68.3248 133.812 68.173C134.115 68.0213 134.351 67.7853 134.503 67.4987C134.671 67.2122 134.739 66.875 134.739 66.4704L135.076 66.521H132.884V65.3915H136.155V66.3524C136.155 67.0436 136.003 67.6336 135.716 68.1393C135.43 68.6451 135.025 69.0328 134.503 69.3025C133.997 69.5722 133.407 69.7071 132.733 69.7071C131.991 69.7071 131.333 69.5385 130.777 69.2014C130.221 68.8642 129.783 68.3922 129.462 67.7685C129.142 67.1447 128.99 66.4198 128.99 65.5601C128.99 64.9026 129.075 64.3295 129.26 63.8237C129.445 63.318 129.698 62.8797 130.035 62.5257C130.373 62.1717 130.76 61.902 131.215 61.6997C131.671 61.5142 132.159 61.4131 132.682 61.4131C133.12 61.4131 133.542 61.4805 133.93 61.6154C134.317 61.7502 134.654 61.9357 134.958 62.1717C135.261 62.4077 135.497 62.6943 135.7 63.0146C135.902 63.3349 136.02 63.7057 136.087 64.0935H134.621V64.1272Z" fill="white"/>
<path d="M148.341 64.2786H146.875C146.841 64.0426 146.757 63.8235 146.639 63.6381C146.521 63.4526 146.386 63.284 146.217 63.166C146.049 63.0312 145.863 62.93 145.644 62.8626C145.425 62.7952 145.206 62.7614 144.953 62.7614C144.515 62.7614 144.127 62.8626 143.79 63.0817C143.453 63.3009 143.183 63.6212 142.997 64.0426C142.812 64.4641 142.711 64.9698 142.711 65.5767C142.711 66.2004 142.812 66.7062 142.997 67.1276C143.183 67.5491 143.453 67.8694 143.79 68.0716C144.127 68.2908 144.515 68.3919 144.953 68.3919C145.189 68.3919 145.425 68.3582 145.627 68.2908C145.846 68.2234 146.032 68.1391 146.2 68.0042C146.369 67.8694 146.521 67.7176 146.622 67.5322C146.74 67.3468 146.824 67.1445 146.858 66.9085H148.324C148.274 67.2962 148.156 67.6502 147.97 67.9874C147.785 68.3245 147.549 68.6111 147.262 68.8808C146.976 69.1337 146.622 69.336 146.234 69.4708C145.846 69.6057 145.408 69.69 144.919 69.69C144.211 69.69 143.587 69.5214 143.031 69.2011C142.475 68.8808 142.036 68.3919 141.716 67.7851C141.396 67.1613 141.244 66.4196 141.244 65.5598C141.244 64.7001 141.413 63.9415 141.733 63.3346C142.053 62.7109 142.492 62.2389 143.048 61.9186C143.604 61.5983 144.228 61.4297 144.936 61.4297C145.391 61.4297 145.796 61.4971 146.183 61.6151C146.571 61.7331 146.908 61.9186 147.212 62.1714C147.515 62.4243 147.768 62.7109 147.954 63.0649C148.156 63.4358 148.274 63.8235 148.341 64.2786Z" fill="white"/>
<path d="M157.431 65.594C157.431 66.4538 157.262 67.2124 156.942 67.8192C156.621 68.443 156.183 68.915 155.627 69.2353C155.07 69.5556 154.447 69.7242 153.739 69.7242C153.031 69.7242 152.407 69.5556 151.851 69.2353C151.294 68.8981 150.856 68.4261 150.536 67.8192C150.215 67.2124 150.047 66.4538 150.047 65.594C150.047 64.7343 150.215 63.9757 150.536 63.3688C150.856 62.7451 151.294 62.273 151.851 61.9527C152.407 61.6324 153.031 61.4639 153.739 61.4639C154.447 61.4639 155.07 61.6324 155.627 61.9527C156.183 62.273 156.621 62.7451 156.942 63.3688C157.279 63.9757 157.431 64.7174 157.431 65.594ZM155.964 65.594C155.964 64.9871 155.863 64.4645 155.677 64.0431C155.492 63.6217 155.222 63.3014 154.885 63.0822C154.548 62.8631 154.16 62.7619 153.722 62.7619C153.284 62.7619 152.896 62.8631 152.559 63.0822C152.222 63.3014 151.969 63.6217 151.766 64.0431C151.564 64.4645 151.48 64.9871 151.48 65.594C151.48 66.2009 151.581 66.7235 151.766 67.1449C151.952 67.5664 152.222 67.8867 152.559 68.1058C152.896 68.325 153.284 68.4261 153.722 68.4261C154.16 68.4261 154.548 68.325 154.885 68.1058C155.222 67.8867 155.475 67.5664 155.677 67.1449C155.88 66.7235 155.964 66.2009 155.964 65.594Z" fill="white"/>
<path d="M159.367 61.5645H161.154L163.548 67.3972H163.649L166.043 61.5645H167.83V69.6056H166.431V64.0763H166.363L164.138 69.5887H163.093L160.868 64.0594H160.8V69.6056H159.401V61.5645H159.367Z" fill="white"/>
<path d="M169.953 61.5645H171.74L174.134 67.3972H174.235L176.629 61.5645H178.416V69.6056H177.017V64.0763H176.949L174.724 69.5887H173.679L171.453 64.0594H171.386V69.6056H169.987V61.5645H169.953Z" fill="white"/>
<path d="M185.633 61.5645H187.099V66.8241C187.099 67.3972 186.965 67.903 186.695 68.3413C186.425 68.7796 186.037 69.1167 185.548 69.3696C185.06 69.6225 184.486 69.7405 183.829 69.7405C183.172 69.7405 182.598 69.6225 182.109 69.3696C181.621 69.1167 181.233 68.7796 180.963 68.3413C180.693 67.903 180.559 67.3972 180.559 66.8241V61.5645H182.025V66.7061C182.025 67.0432 182.093 67.3467 182.244 67.5995C182.396 67.8693 182.598 68.0715 182.868 68.2233C183.138 68.375 183.458 68.4424 183.829 68.4424C184.2 68.4424 184.52 68.375 184.79 68.2233C185.06 68.0715 185.262 67.8693 185.414 67.5995C185.565 67.3298 185.633 67.0432 185.633 66.7061V61.5645Z" fill="white"/>
<path d="M195.848 61.5637V69.6049H194.55L190.757 64.1261H190.689V69.6049H189.223V61.5469H190.521L194.314 67.0425H194.381V61.5469H195.848V61.5637Z" fill="white"/>
<path d="M199.439 61.5637V69.6049H197.973V61.5469H199.439V61.5637Z" fill="white"/>
<path d="M201.225 62.7775V61.5469H207.647V62.7775H205.169V69.6049H203.72V62.7775H201.225Z" fill="white"/>
<path d="M208.895 61.5645H210.547L212.519 65.1214H212.603L214.576 61.5645H216.228L213.294 66.6218V69.6056H211.845V66.6049L208.895 61.5645Z" fill="white"/>
</svg>
