<svg width="193" height="122" viewBox="0 0 193 122" fill="none" xmlns="http://www.w3.org/2000/svg">
<path fill-rule="evenodd" clip-rule="evenodd" d="M103.566 30.0992C108.226 18.0193 122.06 0 150.812 0C176.271 0 192.5 19.8165 192.5 39.3363C192.5 61.4211 179.721 76.7582 174.157 82.8456L173.452 81.873C178.366 76.0023 189.668 61.6985 189.668 41.1578C189.668 21.6184 172.834 4.945 151.099 4.945C126.01 4.945 112.651 23.0775 107.494 35.5454L103.566 30.0992ZM85.3746 86.2614C80.2181 98.733 66.9969 117.056 41.9105 117.056C20.179 117.056 3.34921 100.38 3.34921 80.8327C3.34921 60.3046 14.643 45.9977 19.5485 40.1284L18.839 39.1535C13.2699 45.2297 0.5 60.5885 0.5 82.667C0.5 102.177 16.7383 122 42.206 122C70.9581 122 84.836 103.706 89.4363 91.9101L85.3746 86.2614ZM51.1662 54.2622L43.879 73.2158L39.8456 67.72H20.9993C20.179 69.7521 19.8168 71.579 19.8306 73.2158C19.9005 80.9102 31.02 84.4939 39.8066 84.4939C55.0965 84.4939 65.4254 78.3544 65.4254 65.6968C65.4254 59.1988 58.9149 55.5036 51.1662 54.2622ZM53.5089 38.0567C40.5642 38.0567 27.3959 41.7142 27.3959 55.0763C27.3959 61.4956 35.0549 65.7316 40.0206 66.7203L47.3648 47.5856L51.4222 53.1761H69.7382C70.5089 51.2504 70.9751 49.5968 70.9751 47.9633C70.9751 41.2519 62.4734 38.0567 53.5089 38.0567ZM107.959 59.7988V60.3595C113.42 61.4821 117.146 66.4576 117.146 69.492C117.146 79.0611 108.37 83.175 96.82 83.175H66.1604L83.881 39.0595H109.358C118.723 39.0595 122.62 43.0511 122.62 48.2094C122.62 54.6355 115.495 59.0458 107.959 59.7988ZM102.232 53.5401L98.0683 47.813L90.4135 67.7605L94.5774 73.4338L102.232 53.5401ZM151.58 58.3487H170.882C172.022 55.3076 172.404 52.7426 172.404 50.2669C172.404 43.5024 167.759 37.5651 155.015 37.7927L155.011 37.7814C134.677 37.7814 122.922 53.7347 122.922 69.7714C122.922 76.8823 127.466 85.0314 139.517 85.036L139.523 85.0507C156.861 85.0679 163.949 77.6411 169.182 63.3959H149.643L145.871 73.2113L141.78 67.4151L149.358 47.5856L153.518 53.325L151.58 58.3487Z" fill="white"/>
</svg>
