<svg width="285" height="43" viewBox="0 0 285 43" fill="none" xmlns="http://www.w3.org/2000/svg">
<g clip-path="url(#clip0_2535_461)">
<path d="M0.982422 11.1016H10.3278L15.7694 24.5255L21.2818 11.1016H30.381L16.6796 42.8804H7.52268L11.2732 34.4595L0.982422 11.1016Z" fill="white"/>
<path d="M39.8609 10.5674C32.8392 10.5674 28.4004 16.6394 28.4004 22.6861C28.4004 29.4905 33.267 34.8852 39.7277 34.8852C44.547 34.8852 46.3641 32.0539 46.3641 32.0539V34.2594H54.5151V11.1019H46.3641V13.2071C46.3641 13.2071 44.3368 10.5674 39.8609 10.5674ZM41.5946 18.0093C44.8344 18.0093 46.5063 20.4812 46.5063 22.7116C46.5063 25.1133 44.7151 27.4703 41.5946 27.4703C39.0083 27.4703 36.6712 25.4323 36.6712 22.8138C36.6712 20.1582 38.5511 18.0093 41.5946 18.0093Z" fill="white"/>
<path d="M57.3223 34.2588V0.875977H65.8477V13.2869C65.8477 13.2869 67.8726 10.5698 72.1137 10.5698C77.3014 10.5698 80.3408 14.2968 80.3408 19.6225V34.2588H71.8778V21.6275C71.8778 19.8252 70.9875 18.084 68.9706 18.084C66.9176 18.084 65.8477 19.8515 65.8477 21.6275V34.2588H57.3223Z" fill="white"/>
<path d="M94.876 10.5693C86.8349 10.5693 82.0469 16.465 82.0469 22.7817C82.0469 29.9702 87.8441 34.8844 94.9064 34.8844C101.752 34.8844 107.741 30.1932 107.741 22.9023C107.741 14.9247 101.47 10.5693 94.876 10.5693ZM94.9528 18.0766C97.7932 18.0766 99.7585 20.3578 99.7585 22.7903C99.7585 24.8651 97.9272 27.4241 94.9528 27.4241C92.2274 27.4241 90.182 25.3161 90.182 22.7676C90.182 20.3126 91.8825 18.0766 94.9528 18.0766Z" fill="white"/>
<path d="M121.944 10.5693C113.903 10.5693 109.115 16.465 109.115 22.7817C109.115 29.9702 114.912 34.8844 121.975 34.8844C128.82 34.8844 134.81 30.1932 134.81 22.9023C134.81 14.9247 128.538 10.5693 121.944 10.5693ZM122.021 18.0766C124.862 18.0766 126.827 20.3578 126.827 22.7903C126.827 24.8651 124.995 27.4241 122.021 27.4241C119.296 27.4241 117.25 25.3161 117.25 22.7676C117.25 20.3126 118.951 18.0766 122.021 18.0766Z" fill="white"/>
<path d="M141.536 34.7503C144.663 34.7503 147.197 32.3064 147.197 29.2917C147.197 26.2769 144.663 23.833 141.536 23.833C138.41 23.833 135.875 26.2769 135.875 29.2917C135.875 32.3064 138.41 34.7503 141.536 34.7503Z" fill="white"/>
<path d="M149.057 21.828H138.865L147.91 0.875977H158.064L149.057 21.828Z" fill="white"/>
<path d="M175.008 6.41363C173.563 6.94125 172.802 7.39349 171.636 8.49897L170.673 9.37833V8.07185V6.76537H165.729H160.785V20.0814V33.3975H165.729H170.673V25.7847C170.673 21.5638 170.774 17.7951 170.926 17.2926C171.662 14.6545 175.388 13.9761 176.808 16.2625C177.391 17.167 177.391 17.3177 177.467 25.2822L177.543 33.3975H182.31C187.051 33.3975 187.101 33.3975 187.254 32.8447C187.482 31.9402 187.431 17.167 187.152 14.7299C186.772 10.9612 185.022 8.24772 182.132 6.84075C180.332 5.96139 176.808 5.76039 175.008 6.41363Z" fill="white"/>
<path d="M200.589 6.41404C195.949 7.62002 192.324 10.9365 190.752 15.4087C189.586 18.7251 189.941 23.9008 191.563 27.0665C192.375 28.6744 194.327 30.7849 195.949 31.7899C201.02 35.0058 208.905 34.8048 213.848 31.3125C215.243 30.3075 217.068 28.2222 217.068 27.5941C217.068 27.4936 216.46 27.167 215.75 26.9157C215.015 26.6394 213.341 26.0112 212.048 25.5087C210.73 25.0063 209.462 24.6043 209.209 24.6043C208.955 24.6043 208.398 24.8806 207.992 25.2324C207.586 25.559 206.927 25.961 206.521 26.1117C205.482 26.5137 203.023 26.4635 202.161 26.0112C200.893 25.358 199.22 23.1219 199.651 22.6697C199.727 22.5943 203.809 22.5189 208.753 22.5189C213.671 22.4938 217.854 22.3682 218.057 22.2425C218.488 21.9662 218.285 18.1724 217.702 15.9614C216.46 11.2128 212.834 7.64515 208.043 6.41404C206.116 5.91155 202.465 5.91155 200.589 6.41404ZM206.42 13.8509C207.536 14.4288 208.271 15.2328 208.55 16.2126C208.702 16.6649 208.575 16.7654 207.764 16.9161C206.521 17.1171 203.352 17.1171 201.375 16.9161C199.575 16.7151 199.397 16.3634 200.513 15.0318C201.958 13.3484 204.417 12.8459 206.42 13.8509Z" fill="white"/>
<path d="M269.372 6.48953C265.214 7.62014 263.059 9.50449 262.045 12.9466C260.955 16.6901 262.679 20.3332 266.38 21.9914C267.065 22.318 269.296 23.0215 271.299 23.5491C275.203 24.6295 275.71 24.931 275.127 25.8606C274.949 26.1621 274.341 26.2375 272.287 26.2124C269.904 26.2124 269.448 26.1119 267.141 25.2576C265.746 24.73 264.428 24.2526 264.2 24.2024C263.921 24.1019 263.414 24.8807 262.248 27.2927C261.386 29.0766 260.676 30.6594 260.676 30.8102C260.676 31.3378 265.087 33.0462 268.155 33.6744C270.158 34.1015 275.152 34.0764 276.902 33.6744C281.693 32.5186 284.584 29.6293 284.938 25.6345C285.167 23.323 284.507 21.4889 282.885 19.9312C281.237 18.3483 279.741 17.6449 275.102 16.2379C272.237 15.3836 271.425 15.057 271.349 14.6802C271.07 13.1978 274.24 13.1476 278.524 14.5545C280.172 15.1073 281.592 15.5344 281.643 15.4841C281.769 15.3585 284.507 9.02712 284.507 8.87637C284.507 8.62512 281.795 7.54477 279.564 6.89153C276.42 5.96192 272.009 5.78605 269.372 6.48953Z" fill="white"/>
<path d="M217.576 6.99149C217.576 7.41861 226.45 32.9955 226.652 33.1965C226.779 33.3221 228.681 33.3723 230.912 33.3472L234.943 33.2718L237.225 26.4128C238.467 22.6693 239.557 19.5789 239.633 19.5789C239.709 19.5789 240.799 22.6693 242.067 26.4379L244.374 33.2718L248.532 33.3472L252.715 33.3975L253.552 31.086C254.008 29.8046 256.011 24.0009 258.014 18.1971C260.017 12.3933 261.715 7.44374 261.817 7.19249C261.994 6.7905 261.665 6.76537 257.025 6.76537C254.287 6.76537 252.056 6.7905 252.056 6.84075C252.056 7.49399 247.924 20.4834 247.822 20.1819C247.797 20.0563 246.808 17.0162 245.616 13.4234L243.487 6.891L239.785 6.81562L236.109 6.74025L233.903 13.4485C232.712 17.1167 231.647 20.0312 231.52 19.9307C231.393 19.7548 228.326 10.0064 227.54 7.19249C227.413 6.81562 226.957 6.76537 222.495 6.76537C219.579 6.76537 217.576 6.86587 217.576 6.99149Z" fill="white"/>
</g>
<defs>
<clipPath id="clip0_2535_461">
<rect width="284" height="42" fill="white" transform="translate(0.986328 0.870117)"/>
</clipPath>
</defs>
</svg>
